<svg width="45" height="42" viewBox="0 0 45 42" fill="none" xmlns="http://www.w3.org/2000/svg">
<path d="M27.08 41.1651V26.2741H17.9163V41.1651H6.07971V18.2658L22.4415 7.20435L38.9174 18.9248V41.1651H27.08Z" fill="white"/>
<path d="M33.3668 9.13372V4.72754H38.0743V12.531L33.3668 9.13372Z" fill="#CCCCCC"/>
<path opacity="0.3" d="M33.3668 9.13381V7.19043L38.0743 10.4744V12.5311L33.3668 9.13381Z" fill="#333333"/>
<path d="M38.9307 12.5818H37.2177V5.56272H34.2233V9.27654H32.5103V3.89258H38.9307V12.5818Z" fill="#333333"/>
<path d="M39.3272 21.2488L22.4414 9.66696L6.49036 20.6094V15.245L22.5125 3.97803L39.3272 15.8412V21.2488Z" fill="#CCCCCC"/>
<path d="M22.4414 7.20421L4.01784 19.6586L1.22412 16.1193L22.5125 1.51611L43.7721 16.8549L40.8913 20.3297L22.4414 7.20421Z" fill="#ECE9E6"/>
<path d="M41.0448 21.4727L22.4289 8.22895L3.83636 20.7975L0 15.9378L22.5251 0.486572L45 16.702L41.0448 21.4727ZM22.454 6.1796L40.7379 19.1869L42.5442 17.0078L22.5 2.5457L2.44828 16.3008L4.19978 18.5197L22.454 6.1796Z" fill="#333333"/>
<path d="M27.08 26.2739H17.9164V41.1649H27.08V26.2739Z" fill="#05B3BD"/>
<path d="M20.9702 33.7187C20.9702 34.1289 20.6281 34.4624 20.2065 34.4624C19.7867 34.4624 19.442 34.1289 19.442 33.7187C19.442 33.3085 19.7867 32.9741 20.2065 32.9741C20.6281 32.9741 20.9702 33.3085 20.9702 33.7187Z" fill="#333333"/>
<path d="M27.9365 41.1651H26.2235V27.1091H18.7729V41.1651H17.0598V25.439H27.9365V41.1651Z" fill="#333333"/>
<path d="M6.93619 41.1649H5.22314V18.0871L5.60755 17.8396L6.11401 18.5364H6.93619V41.1649Z" fill="#333333"/>
<path d="M39.7738 41.1649H38.0608V19.3218H39.7738V41.1649Z" fill="#333333"/>
<path d="M41.303 42H3.6925V40.3298H41.303V42Z" fill="#333333"/>
<path d="M27.1586 14.7688H17.8376V23.8567H27.1586V14.7688Z" fill="#CCCCCC"/>
<path d="M26.3172 14.7688H18.6792V22.2143H26.3172V14.7688Z" fill="#FFA8A6"/>
<path d="M27.1737 23.0495H17.8226V13.9338H27.1737V23.0495ZM19.5357 21.3793H25.4607V15.604H19.5357V21.3793Z" fill="#333333"/>
<path d="M23.3549 22.2143H21.6418V14.7688H23.3549V22.2143Z" fill="#333333"/>
<path d="M26.3172 19.3266H18.6792V17.6565H26.3172V19.3266Z" fill="#333333"/>
</svg>
