<svg width="135" height="50" viewBox="0 0 135 50" fill="none" xmlns="http://www.w3.org/2000/svg">
<path d="M69.904 26.112C70 26.256 69.928 26.976 69.784 27.072C69.112 27.048 67.6 27 65.68 27C63.664 27 62.44 27.048 61.864 27.072C61.744 26.952 61.768 26.232 61.864 26.112C62.608 26.016 63.28 25.944 63.688 25.848C64.504 25.68 64.624 25.2 64.672 24.096C64.744 21.48 64.768 17.712 64.768 13.608C64.768 13.512 64.672 13.392 64.6 13.392H61.744C61.36 13.392 61 13.536 60.688 14.088C60.4 14.568 60.088 15.384 59.704 16.464C59.56 16.536 58.72 16.32 58.672 16.176C58.864 15.12 59.128 13.056 59.2 11.928C59.2 11.856 59.512 11.76 59.584 11.808C59.992 12.024 60.496 12.144 61.576 12.144H70.48C71.776 12.144 72.352 12.096 73 11.76C73.12 11.736 73.312 11.856 73.36 11.904C73.12 12.888 72.904 15.048 72.784 16.392C72.664 16.536 71.8 16.512 71.704 16.392C71.632 15.408 71.488 14.544 71.32 14.088C71.104 13.608 70.816 13.416 70.36 13.416C69.04 13.392 67.768 13.392 67.192 13.416C67.12 13.44 67.072 13.536 67.072 13.584C67.072 17.208 67.048 23.616 67.144 24.816C67.192 25.248 67.336 25.632 67.912 25.8C68.32 25.92 68.848 25.968 69.904 26.112ZM75.1073 13.008C74.9873 12.888 75.0113 12.168 75.1313 12.072C75.3473 12.072 76.3313 12.144 77.9633 12.144C79.4993 12.144 80.7473 12.096 82.2353 12.096C84.0833 12.096 86.6273 12.768 86.6273 15.552C86.6273 16.92 85.6673 18.024 84.4193 18.552C84.3473 18.576 84.3473 18.624 84.4193 18.648C86.1953 19.104 87.7553 20.208 87.7553 22.32C87.7553 24.384 86.4833 25.68 84.6353 26.496C83.5073 27 82.1153 27.168 80.6993 27.168C79.6193 27.168 76.3793 27.048 74.7713 27.072C74.6033 27 74.5793 26.232 74.7233 26.112C75.1073 26.088 75.9713 26.016 76.3793 25.896C76.9553 25.752 77.1473 25.608 77.2193 24.744C77.2673 24 77.2673 21.336 77.2673 19.44C77.2673 16.848 77.2913 15.096 77.2673 14.232C77.2433 13.56 77.0033 13.344 76.5473 13.224C76.1873 13.152 75.5873 13.08 75.1073 13.008ZM80.6753 13.2C80.5313 13.2 80.1233 13.2 79.8113 13.248C79.7153 13.272 79.5953 13.512 79.5953 13.632C79.5713 14.496 79.5473 16.752 79.5473 18.312C79.5473 18.36 79.6193 18.432 79.6673 18.432C79.9793 18.456 80.7473 18.48 81.3953 18.48C82.3073 18.48 82.8353 18.36 83.1233 18.216C83.8913 17.832 84.2513 16.992 84.2513 16.08C84.2513 13.992 82.8113 13.2 80.6753 13.2ZM82.1393 25.992C83.7953 25.992 85.2593 25.056 85.2593 22.848C85.2593 20.736 83.7233 19.536 80.9153 19.536C80.7953 19.536 79.9073 19.512 79.6913 19.56C79.6193 19.584 79.5473 19.632 79.5473 19.68C79.5473 21.192 79.5233 23.616 79.5953 24.576C79.6433 24.984 79.9313 25.56 80.2913 25.728C80.6753 25.944 81.5393 25.992 82.1393 25.992ZM97.9626 27.432C95.5146 27.432 93.7146 26.664 92.4186 25.296C90.9306 23.688 90.3066 21.72 90.3066 19.44C90.3066 17.616 90.8586 16.056 91.9386 14.688C93.2586 12.936 95.8746 11.712 98.4186 11.712C103.387 11.712 105.907 15.312 105.907 19.2C105.907 21.432 105.403 22.944 104.395 24.312C102.811 26.376 100.363 27.432 97.9626 27.432ZM98.8746 26.112C99.8346 26.112 100.747 25.848 101.347 25.344C102.811 24.216 103.315 22.296 103.315 20.112C103.315 17.424 102.427 15.024 100.579 13.776C99.7386 13.224 98.7546 12.912 97.5306 12.912C96.7626 12.912 96.0906 13.104 95.5146 13.416C93.8106 14.352 92.9706 16.464 92.9706 18.888C92.9706 21.504 93.9546 24.12 96.0186 25.392C96.8586 25.896 97.7226 26.112 98.8746 26.112ZM121.599 13.008C121.047 13.08 120.783 13.104 120.375 13.224C119.727 13.392 119.583 13.776 119.535 14.496C119.511 15.048 119.511 16.536 119.511 19.752C119.511 21.096 119.559 24.168 119.583 24.624C119.655 25.56 119.919 25.752 120.471 25.896C120.783 25.944 121.311 26.064 121.839 26.112C121.983 26.256 121.911 26.952 121.767 27.072C121.215 27.072 119.631 27 118.479 27C116.943 27 115.695 27.072 115.071 27.072C114.903 26.976 114.879 26.232 115.023 26.112C115.671 26.04 115.983 26.016 116.391 25.896C116.991 25.704 117.135 25.512 117.207 24.864C117.255 24.144 117.255 22.008 117.255 20.688C117.255 20.64 117.183 20.568 117.159 20.568C116.799 20.568 116.583 20.568 116.295 20.616C115.599 20.688 114.831 21.432 113.895 22.632C113.223 23.544 112.431 24.576 111.591 25.632C111.111 26.184 110.727 26.472 110.367 26.664C109.383 27.192 107.607 27.216 106.479 27.192C106.311 27.12 106.239 26.4 106.359 26.304C108.063 26.04 108.231 25.968 109.215 24.912C110.463 23.568 112.047 21.216 113.415 20.328C113.439 20.304 113.415 20.184 113.367 20.136C111.783 19.752 109.863 18.864 109.863 16.152C109.863 13.656 111.999 12.144 115.239 12.144H118.767C119.559 12.144 121.047 12.072 121.575 12.072C121.719 12.144 121.767 12.888 121.599 13.008ZM117.015 13.296C116.727 13.176 115.863 13.176 115.671 13.176C113.463 13.176 112.335 14.208 112.335 16.032C112.335 18.96 115.071 19.536 117.135 19.536C117.207 19.536 117.255 19.464 117.255 19.416C117.255 17.76 117.255 14.568 117.207 13.68C117.207 13.584 117.135 13.368 117.015 13.296Z" fill="#333333"/>
<path d="M60.352 34.272C60.304 34.104 60.448 33.504 60.544 33.456C61.936 33.48 64.072 33.528 65.776 33.528C65.776 33.912 65.968 34.56 66.064 35.04C66.712 37.44 67.912 41.784 68.2 42.672C68.248 42.696 68.272 42.696 68.32 42.672C69.112 41.424 71.728 36.96 72.64 35.112C72.928 34.56 73.216 33.984 73.36 33.528C75.064 33.552 76.792 33.456 78.304 33.456C78.352 33.528 78.328 34.152 78.232 34.272C77.632 34.368 77.272 34.44 76.912 34.536C76.384 34.68 76.264 35.112 76.168 35.736C75.976 37.464 75.472 43.92 75.4 45.624C75.4 46.248 75.472 46.776 76 46.944C76.336 47.064 76.84 47.16 77.392 47.256C77.44 47.4 77.392 47.952 77.248 48.072C76.36 48.072 74.944 48 73.408 48C71.728 48 70.432 48.072 69.952 48.072C69.856 47.904 69.904 47.352 70 47.256C70.624 47.136 70.864 47.088 71.224 46.992C71.656 46.872 71.848 46.584 71.992 45.6C72.232 43.728 72.808 38.904 72.952 36.792C72.952 36.768 72.88 36.792 72.832 36.816C71.536 39.264 67.72 46.08 66.832 47.952C66.64 48.024 65.944 48.072 65.8 47.952C65.272 45.408 64.048 39.408 63.424 37.032C63.4 37.008 63.352 37.032 63.328 37.056C62.68 39.6 61.696 43.728 61.408 45.432C61.24 46.296 61.48 46.8 62.032 46.944C62.488 47.088 62.992 47.184 63.448 47.256C63.52 47.376 63.448 48 63.328 48.096C62.824 48.096 61.576 48 59.968 48C59.08 48 57.784 48.096 57.256 48.096C57.184 47.904 57.232 47.376 57.352 47.28C57.952 47.208 58.312 47.112 58.648 46.992C59.272 46.8 59.536 46.416 59.896 45.48C60.52 43.608 62.2 37.128 62.512 35.736C62.608 35.352 62.56 34.8 61.96 34.584C61.528 34.464 60.976 34.392 60.352 34.272ZM78.0346 47.256C78.7546 47.184 79.2346 47.088 79.5946 46.992C80.0266 46.896 80.2426 46.56 80.4346 45.792C80.8666 43.8 81.9226 37.224 82.0906 35.568C82.1626 34.896 82.0906 34.608 81.6106 34.488C81.3226 34.392 80.7466 34.296 80.3146 34.248C80.2666 34.104 80.3626 33.528 80.4586 33.432C81.3226 33.432 82.9306 33.528 84.0586 33.528H88.8586C89.7706 33.528 91.3546 33.48 91.8106 33.408C91.8586 33.432 91.8826 33.552 91.8826 33.576C91.5946 34.32 91.2586 35.808 91.0186 37.2C90.8746 37.32 90.2026 37.32 90.0826 37.224C90.0586 36.576 89.9866 35.784 89.8666 35.352C89.7226 34.896 89.4106 34.728 89.0026 34.68C88.3546 34.632 86.4106 34.584 85.7866 34.656C85.6666 34.68 85.5466 34.848 85.5226 34.944C85.2826 36.144 84.9466 38.28 84.6826 39.936C84.6826 40.008 84.7546 40.08 84.8506 40.08C85.6186 40.08 86.7946 40.08 87.5386 40.056C88.0186 40.032 88.3546 39.816 88.5706 39.312C88.6906 39.072 88.8586 38.688 88.9786 38.328C89.0746 38.208 89.7946 38.256 89.9146 38.352C89.7946 38.76 89.5546 40.008 89.4106 40.752C89.2666 41.592 89.1706 42.576 89.0746 43.248C88.9546 43.368 88.3066 43.32 88.1626 43.272C88.1866 42.792 88.1146 42.288 88.0666 42.024C87.9706 41.64 87.7546 41.448 87.3466 41.376C86.9386 41.328 85.3306 41.304 84.6586 41.304C84.5626 41.304 84.4666 41.376 84.4666 41.472C84.2266 42.96 83.9626 44.808 83.7706 45.96C83.6986 46.464 83.9386 46.704 84.1786 46.776C84.7306 46.92 86.5066 46.896 87.5146 46.896C88.2106 46.896 88.7386 46.752 89.2906 46.152C89.8186 45.552 90.2266 45.048 90.8026 44.064C90.9466 43.992 91.5466 44.256 91.6186 44.424C91.4266 45.144 90.7546 46.992 90.2506 47.76C90.0586 48.024 89.9386 48.048 89.3146 48.072C87.3946 48.072 85.6666 48 81.9466 48C80.2186 48 78.8026 48.072 77.9626 48.072C77.8906 47.976 77.9386 47.328 78.0346 47.256ZM97.6986 37.752C97.4106 39.96 98.6586 40.32 99.9066 40.32C100.579 40.32 101.107 40.2 101.539 40.056C101.611 40.008 101.683 39.864 101.683 39.84C101.947 38.232 102.259 36.432 102.331 35.52C102.379 34.944 102.427 34.656 101.731 34.464C101.467 34.392 101.155 34.392 100.699 34.296C100.651 34.176 100.747 33.528 100.843 33.456C101.539 33.456 103.147 33.528 104.275 33.528C105.235 33.528 107.011 33.456 107.707 33.456C107.803 33.504 107.707 34.224 107.587 34.32C107.035 34.416 106.843 34.416 106.555 34.488C106.003 34.632 105.811 34.776 105.643 35.64C105.043 38.88 104.515 42.48 103.987 46.008C103.963 46.512 103.987 46.824 104.611 46.992C104.899 47.064 105.451 47.16 105.931 47.256C105.955 47.328 105.835 48 105.739 48.072C105.091 48.072 103.243 48 102.067 48C101.203 48 99.1626 48.072 98.3706 48.072C98.2746 47.928 98.3946 47.28 98.4906 47.256C98.7786 47.208 99.2346 47.16 99.5946 47.088C100.435 46.896 100.555 46.68 100.771 45.288C100.987 44.04 101.299 42.408 101.515 41.04C101.515 40.992 101.467 40.944 101.419 40.968C100.387 41.424 99.2106 41.784 97.9386 41.784C96.4026 41.784 95.2506 41.448 94.6506 40.392C94.4106 39.912 94.2426 39.096 94.4586 37.776C94.4586 37.776 94.6986 36.192 94.7946 35.64C94.8906 34.92 94.7946 34.608 94.1226 34.464C93.8346 34.392 93.5466 34.344 93.1146 34.272C93.0906 34.176 93.1626 33.528 93.2586 33.432C94.0506 33.432 95.2746 33.528 96.6666 33.528C97.7706 33.528 99.3546 33.432 99.6666 33.432C99.7626 33.504 99.6186 34.176 99.5466 34.248C98.3706 34.44 98.2746 34.656 98.1546 35.112C98.0346 35.616 97.8186 36.864 97.6986 37.752ZM109.436 47.256C110.108 47.16 110.612 47.112 110.924 47.016C111.572 46.896 111.788 46.584 112.004 45.504C112.484 43.104 113.54 36.696 113.828 34.824C113.828 34.752 113.78 34.656 113.708 34.656C113.3 34.608 112.364 34.632 111.956 34.656C111.596 34.68 111.116 34.752 110.588 35.4C110.156 35.904 109.652 36.72 109.172 37.608C109.028 37.632 108.428 37.488 108.332 37.272C108.74 36.24 109.268 34.368 109.484 33.336C109.508 33.264 109.604 33.192 109.652 33.192C110.372 33.408 111.236 33.528 111.836 33.528H119.708C120.476 33.528 121.388 33.504 122.348 33.264C122.372 33.288 122.468 33.432 122.468 33.504C121.988 34.704 121.724 35.904 121.388 37.488C121.244 37.608 120.572 37.632 120.5 37.488C120.476 36.552 120.404 35.928 120.332 35.448C120.236 34.92 119.828 34.704 119.444 34.68C118.916 34.656 117.812 34.632 117.26 34.68C117.212 34.704 117.068 34.8 117.068 34.896C116.66 37.176 115.58 44.04 115.412 45.936C115.364 46.416 115.388 46.824 115.892 46.968C116.276 47.064 116.852 47.16 117.644 47.256C117.716 47.376 117.596 47.976 117.476 48.072C116.108 48.072 115.076 48 113.42 48C111.044 48 110.324 48.072 109.292 48.072C109.268 47.904 109.34 47.376 109.436 47.256ZM119.238 47.256C120.942 47.016 121.302 46.872 122.166 45.408C124.062 42.264 126.846 36.84 127.662 35.064C127.926 34.584 128.19 33.936 128.358 33.48C128.526 33.48 129.006 33.528 129.486 33.528C129.99 33.528 130.398 33.48 130.566 33.48C130.614 33.864 130.686 34.416 130.758 34.824C131.19 37.176 132.03 42.648 132.51 44.784C132.942 46.848 133.062 46.992 134.862 47.256C134.982 47.328 134.886 48 134.742 48.072C134.142 48.072 133.254 48 131.262 48C129.294 48.024 128.262 48.072 127.686 48.072C127.566 47.928 127.59 47.352 127.734 47.256C127.998 47.232 128.838 47.112 129.054 46.968C129.27 46.8 129.342 46.536 129.342 46.44C129.318 45.672 128.982 43.632 128.838 42.888C128.838 42.816 128.766 42.72 128.67 42.72C128.31 42.672 127.446 42.672 126.846 42.672C125.934 42.672 125.454 42.672 125.142 42.696C125.046 42.696 124.974 42.768 124.902 42.888C124.302 44.016 123.438 45.744 123.366 46.224C123.318 46.56 123.342 46.896 123.918 47.016C124.302 47.112 124.758 47.184 125.142 47.256C125.238 47.352 125.118 48 124.974 48.072C124.278 48.072 123.15 48 121.878 48C120.846 48 119.718 48.072 119.142 48.072C119.022 47.976 119.118 47.328 119.238 47.256ZM127.854 36.888L125.694 41.304C125.67 41.376 125.67 41.472 125.742 41.472C125.958 41.496 126.462 41.496 127.11 41.496C127.974 41.496 128.382 41.496 128.55 41.472C128.598 41.472 128.646 41.424 128.646 41.352C128.526 40.608 128.19 38.208 127.95 36.888C127.926 36.864 127.878 36.864 127.854 36.888Z" fill="#05B3BD"/>
<g clip-path="url(#clip0_201_654)">
<path d="M27.08 49.1651V34.2741H17.9163V49.1651H6.07971V26.2658L22.4415 15.2043L38.9174 26.9248V49.1651H27.08Z" fill="white"/>
<path d="M33.3668 17.1337V12.7275H38.0743V20.531L33.3668 17.1337Z" fill="#CCCCCC"/>
<path opacity="0.3" d="M33.3668 17.1338V15.1904L38.0743 18.4744V20.5311L33.3668 17.1338Z" fill="#333333"/>
<path d="M38.9307 20.5818H37.2177V13.5627H34.2233V17.2765H32.5103V11.8926H38.9307V20.5818Z" fill="#333333"/>
<path d="M39.3272 29.2488L22.4414 17.667L6.49036 28.6094V23.245L22.5125 11.978L39.3272 23.8412V29.2488Z" fill="#CCCCCC"/>
<path d="M22.4414 15.2042L4.01784 27.6586L1.22412 24.1193L22.5125 9.51611L43.7721 24.8549L40.8913 28.3297L22.4414 15.2042Z" fill="#ECE9E6"/>
<path d="M41.0448 29.4727L22.4289 16.229L3.83636 28.7975L0 23.9378L22.5251 8.48657L45 24.702L41.0448 29.4727ZM22.454 14.1796L40.7379 27.1869L42.5442 25.0078L22.5 10.5457L2.44828 24.3008L4.19978 26.5197L22.454 14.1796Z" fill="#333333"/>
<path d="M27.08 34.2739H17.9164V49.1649H27.08V34.2739Z" fill="#05B3BD"/>
<path d="M20.9702 41.7187C20.9702 42.1289 20.6281 42.4624 20.2065 42.4624C19.7867 42.4624 19.442 42.1289 19.442 41.7187C19.442 41.3085 19.7867 40.9741 20.2065 40.9741C20.6281 40.9741 20.9702 41.3085 20.9702 41.7187Z" fill="#333333"/>
<path d="M27.9365 49.1651H26.2235V35.1091H18.7729V49.1651H17.0598V33.439H27.9365V49.1651Z" fill="#333333"/>
<path d="M6.93619 49.1649H5.22314V26.0871L5.60755 25.8396L6.11401 26.5364H6.93619V49.1649Z" fill="#333333"/>
<path d="M39.7738 49.1649H38.0608V27.3218H39.7738V49.1649Z" fill="#333333"/>
<path d="M41.303 50H3.6925V48.3298H41.303V50Z" fill="#333333"/>
<path d="M27.1586 22.7688H17.8376V31.8567H27.1586V22.7688Z" fill="#CCCCCC"/>
<path d="M26.3172 22.7688H18.6792V30.2143H26.3172V22.7688Z" fill="#FFA8A6"/>
<path d="M27.1737 31.0495H17.8226V21.9338H27.1737V31.0495ZM19.5357 29.3793H25.4607V23.604H19.5357V29.3793Z" fill="#333333"/>
<path d="M23.3549 30.2143H21.6418V22.7688H23.3549V30.2143Z" fill="#333333"/>
<path d="M26.3172 27.3266H18.6792V25.6565H26.3172V27.3266Z" fill="#333333"/>
<path d="M39.4526 5.90182L40.3527 6.6594L42.7399 4.61656C43.1983 4.22591 43.5379 3.71301 43.6834 3.13723C43.7888 2.71234 43.7403 2.47585 43.7403 2.47585C43.6533 1.52662 42.9423 0.730713 41.952 0.730713C41.2192 0.730713 40.6287 1.16128 40.3527 1.77948C40.075 1.16128 39.4426 0.730713 38.7116 0.730713C37.7212 0.730713 37.0103 1.52662 36.9215 2.47585C36.9215 2.47585 36.8731 2.71234 36.9818 3.13723" fill="#FFA8A6"/>
<path d="M40.3527 7.39006C40.1783 7.39006 40.0035 7.33094 39.863 7.21228L38.9629 6.4547C38.6497 6.19132 38.615 5.72969 38.8856 5.4243C39.1554 5.1185 39.6284 5.08468 39.9424 5.34889L40.3485 5.69061L42.2456 4.06731C42.6053 3.76067 42.8503 3.37904 42.9558 2.96234C43.0147 2.72418 43.0005 2.59123 43.0005 2.59006C42.9449 2.00451 42.5709 1.46138 41.952 1.46138C41.5513 1.46138 41.2105 1.68927 41.0398 2.07098C40.9211 2.33762 40.6513 2.50973 40.3536 2.51015C40.0553 2.51015 39.7856 2.33845 39.6664 2.07257C39.4995 1.70113 39.1248 1.46138 38.7116 1.46138C38.0926 1.46138 37.7183 2.00493 37.6681 2.5423C37.6614 2.59048 37.6481 2.72175 37.7091 2.96025C37.8091 3.35173 37.5648 3.74848 37.1634 3.84635C36.7589 3.94497 36.3553 3.7048 36.2545 3.31415C36.1161 2.77228 36.1676 2.42572 36.1868 2.33278C36.3035 1.03607 37.3938 0 38.7116 0C39.3205 0 39.8952 0.21286 40.3439 0.580209C40.783 0.210021 41.3447 0 41.952 0C43.2711 0 44.361 1.03649 44.4869 2.41102C44.4944 2.4253 44.5458 2.76902 44.412 3.30889C44.2317 4.02163 43.8244 4.66263 43.233 5.1666L40.8471 7.2086C40.7057 7.32935 40.5292 7.39006 40.3527 7.39006Z" fill="#333333"/>
<path d="M35.3959 4.50896C35.0848 3.81743 34.3771 3.33301 33.5524 3.33301C32.445 3.33301 31.6469 4.22762 31.5466 5.29184C31.5466 5.29184 31.4914 5.55606 31.6102 6.0323C31.7724 6.68065 32.1555 7.25476 32.6691 7.69593L35.3959 9.98503L38.0742 7.69593C38.5895 7.25476 38.9709 6.68065 39.1332 6.0323C39.2503 5.55606 39.1984 5.29184 39.1984 5.29184C39.0981 4.22762 38.2984 3.33301 37.1892 3.33301C36.3662 3.33301 35.7054 3.81743 35.3959 4.50896Z" fill="#FBD0C4"/>
<path d="M35.3959 10.7157C35.2219 10.7157 35.0476 10.6566 34.907 10.5387L32.1802 8.24964C31.5223 7.68488 31.0756 6.97992 30.882 6.20564C30.7348 5.61599 30.7912 5.2453 30.8121 5.14584C30.9414 3.72973 32.1246 2.60229 33.5524 2.60229C34.242 2.60229 34.8907 2.85307 35.3871 3.28321C35.8719 2.84939 36.5038 2.60229 37.1892 2.60229C38.6192 2.60229 39.8036 3.72973 39.9445 5.22493C39.9537 5.25265 40.0055 5.61883 39.8621 6.20271C39.6668 6.98192 39.2197 7.68739 38.569 8.24472L35.8899 10.5347C35.7484 10.6554 35.5723 10.7157 35.3959 10.7157ZM33.5524 4.06367C32.8059 4.06367 32.3537 4.71528 32.2926 5.3587C32.2855 5.4129 32.2663 5.57156 32.3383 5.85983C32.4592 6.34133 32.7448 6.78701 33.1647 7.14751L35.3913 9.01708L37.5803 7.14626C37.9985 6.78827 38.2842 6.343 38.405 5.859C38.4766 5.56789 38.4581 5.40597 38.4581 5.40438C38.3912 4.71528 37.9383 4.06367 37.1892 4.06367C36.7033 4.06367 36.2897 4.33933 36.0827 4.80129C35.9639 5.06718 35.6945 5.23921 35.3968 5.23962C35.0989 5.23962 34.8292 5.06793 34.7096 4.80255C34.5076 4.35361 34.0534 4.06367 33.5524 4.06367Z" fill="#333333"/>
</g>
<defs>
<clipPath id="clip0_201_654">
<rect width="45" height="50" fill="white"/>
</clipPath>
</defs>
</svg>
